<?xml version="1.0" standalone="no"?><!DOCTYPE svg PUBLIC "-//W3C//DTD SVG 1.1//EN" "http://www.w3.org/Graphics/SVG/1.1/DTD/svg11.dtd"><svg t="1630483469598" class="icon" viewBox="0 0 1024 1024" version="1.1" xmlns="http://www.w3.org/2000/svg" p-id="2838" xmlns:xlink="http://www.w3.org/1999/xlink" width="200" height="200"><defs><style type="text/css"></style></defs><path d="M730.4 717.6a30.4 30.4 0 0 0 30.4-30.4v-360a90.88 90.88 0 0 0-91.2-89.6H640v-32a29.44 29.44 0 0 0-30.4-30.4 30.4 30.4 0 0 0-30.4 30.4v32h-60.8v-32a29.44 29.44 0 0 0-30.4-30.4 30.4 30.4 0 0 0-30.4 30.4v32h-60.8v-32A29.44 29.44 0 0 0 368 176a30.4 30.4 0 0 0-30.4 30.4v32h-30.4a89.76 89.76 0 0 0-91.2 89.6v480a90.88 90.88 0 0 0 91.2 89.6h363.2a89.76 89.76 0 0 0 91.2-89.6 29.44 29.44 0 0 0-30.4-30.4 30.4 30.4 0 0 0-30.4 30.4 30.4 30.4 0 0 1-30.4 30.4H306.4a30.4 30.4 0 0 1-30.4-30.4v-480a30.4 30.4 0 0 1 30.4-30.4H336v28.8a30.4 30.4 0 0 0 30.4 30.4 29.44 29.44 0 0 0 30.4-30.4v-28.8h60.8v28.8a30.4 30.4 0 1 0 60.8 0v-28.8h60.8v28.8a30.4 30.4 0 0 0 30.4 30.4 32 32 0 0 0 30.4-30.4v-28.8h28.8a30.4 30.4 0 0 1 30.4 30.4V688a29.44 29.44 0 0 0 31.2 29.6z" fill="#3F4C92" p-id="2839"></path><path d="M296.8 364h494.4l-41.6-137.6h-436.8z" fill="#3F4C92" p-id="2840"></path><path d="M292 372h488v392l-41.6 57.6h-372.8l-64-43.2z" fill="#748AFF" p-id="2841"></path><path d="M778.4 669.6a30.4 30.4 0 0 0 30.4-30.4v-360a90.88 90.88 0 0 0-91.2-89.6H688v-32A29.44 29.44 0 0 0 658.4 128a30.4 30.4 0 0 0-30.4 30.4v32h-60.8v-32a29.44 29.44 0 0 0-30.4-30.4 30.4 30.4 0 0 0-30.4 30.4v32h-60.8v-32A29.44 29.44 0 0 0 416 128a30.4 30.4 0 0 0-32 29.6v32h-30.4a89.76 89.76 0 0 0-91.2 89.6v480a90.88 90.88 0 0 0 91.2 89.6h363.2a89.76 89.76 0 0 0 91.2-89.6 29.44 29.44 0 0 0-30.4-30.4 30.4 30.4 0 0 0-30.4 30.4 30.4 30.4 0 0 1-30.4 30.4H354.4a30.4 30.4 0 0 1-30.4-30.4V399.04h424v240a29.44 29.44 0 0 0 30.4 30.56z m-452.8-331.2h-1.6v-59.2a30.4 30.4 0 0 1 30.4-30.4H384v28.8a30.4 30.4 0 0 0 30.4 30.4 29.44 29.44 0 0 0 30.4-30.4v-28.8h60.8v28.8a30.4 30.4 0 1 0 60.8 0v-28.8h60.8v28.8a30.4 30.4 0 0 0 30.4 30.4 32 32 0 0 0 30.4-30.4v-28.8h28.8a30.4 30.4 0 0 1 30.4 30.4v59.2z" fill="#464646" p-id="2842"></path><path d="M672 484H404a24 24 0 0 0 0 48H672a24 24 0 0 0 0-48zM592 588H404a16 16 0 0 0 0 32H592a16 16 0 0 0 0-32z" fill="#FFFFFF" p-id="2843"></path></svg>