<?xml version="1.0" standalone="no"?><!DOCTYPE svg PUBLIC "-//W3C//DTD SVG 1.1//EN" "http://www.w3.org/Graphics/SVG/1.1/DTD/svg11.dtd"><svg t="1630564078930" class="icon" viewBox="0 0 1024 1024" version="1.1" xmlns="http://www.w3.org/2000/svg" p-id="2807" xmlns:xlink="http://www.w3.org/1999/xlink" width="200" height="200"><defs><style type="text/css"></style></defs><path d="M890.2144 571.1872H133.7856c-9.3184 0-18.2784-3.7888-24.7296-10.5472a34.23744 34.23744 0 0 1-9.5744-25.1392c4.1472-109.4656 46.4384-203.8784 125.7472-280.576 79.4112-76.6464 175.872-115.5072 286.72-115.5072s207.3088 38.8608 286.72 115.5072c79.36 76.6976 121.7024 171.1104 125.8496 280.576 0.3584 9.3184-3.1232 18.432-9.5744 25.1392a34.19648 34.19648 0 0 1-24.7296 10.5472zM171.1104 502.4768h681.7792c-10.1376-76.6976-43.6736-141.7728-101.9392-198.0928-67.072-64.768-145.2544-96.256-239.0016-96.256s-171.8784 31.488-239.0016 96.256c-58.2144 56.32-91.7504 121.3952-101.8368 198.0928z" fill="#444444" p-id="2808"></path><path d="M511.9488 208.128c-18.9952 0-34.3552-15.36-34.3552-34.3552V99.6352c0-18.9952 15.36-34.3552 34.3552-34.3552s34.3552 15.36 34.3552 34.3552v74.0864c0 18.9952-15.36 34.4064-34.3552 34.4064z m-89.9072 750.592c-32.256 0-64.5632-13.824-88.6784-37.9392-22.3744-22.3744-33.2288-50.5856-33.2288-86.3232 0-18.9952 15.36-34.3552 34.3552-34.3552s34.3552 15.36 34.3552 34.3552c0 17.2544 3.9424 28.5184 13.1072 37.7344 11.3152 11.3152 25.9584 17.8176 40.0896 17.8176s28.7232-6.5024 40.0896-17.92c10.5472-10.5472 15.4112-22.528 15.4112-37.7344v-291.7376c0-18.9952 15.36-34.3552 34.3552-34.3552s34.3552 15.36 34.3552 34.3552v291.7376c0 33.6896-11.9808 62.72-35.584 86.3232-24.064 24.1664-56.4224 38.0416-88.6272 38.0416z" fill="#444444" p-id="2809"></path><path d="M770.4576 463.7184H684.544c0-40.6016-65.536-91.8016-106.7008-102.4l21.4528-83.1488c69.9904 18.0224 171.1616 94.5152 171.1616 185.5488z" fill="#E03636" p-id="2810"></path></svg>